0
SECTION
2
HEADER
9
$INSUNITS
70
4
9
$ACADVER
1
AC1014
9
$HANDSEED
5
FFFF
0
ENDSEC
0
SECTION
2
TABLES
0
TABLE
2
VPORT
5
8
100
AcDbSymbolTable
0
ENDTAB
0
TABLE
2
LTYPE
5
5
100
AcDbSymbolTable
0
LTYPE
5
14
100
AcDbSymbolTableRecord
100
AcDbLinetypeTableRecord
2
BYBLOCK
70
0
0
LTYPE
5
15
100
AcDbSymbolTableRecord
100
AcDbLinetypeTableRecord
2
BYLAYER
70
0
0
ENDTAB
0
TABLE
2
LAYER
5
2
100
AcDbSymbolTable
70
2
0
LAYER
5
50
100
AcDbSymbolTableRecord
100
AcDbLayerTableRecord
2
0
70
0
6
CONTINUOUS
0
ENDTAB
0
TABLE
2
STYLE
5
3
100
AcDbSymbolTable
70
1
0
STYLE
5
11
100
AcDbSymbolTableRecord
100
AcDbTextStyleTableRecord
2
STANDARD
70
0
0
ENDTAB
0
TABLE
2
VIEW
5
6
100
AcDbSymbolTable
70
0
0
ENDTAB
0
TABLE
2
UCS
5
7
100
AcDbSymbolTable
70
0
0
ENDTAB
0
TABLE
2
APPID
5
9
100
AcDbSymbolTable
70
2
0
APPID
5
12
100
AcDbSymbolTableRecord
100
AcDbRegAppTableRecord
2
ACAD
70
0
0
ENDTAB
0
TABLE
2
DIMSTYLE
5
A
100
AcDbSymbolTable
70
1
0
ENDTAB
0
TABLE
2
BLOCK_RECORD
5
1
100
AcDbSymbolTable
70
1
0
BLOCK_RECORD
5
1F
100
AcDbSymbolTableRecord
100
AcDbBlockTableRecord
2
*MODEL_SPACE
0
BLOCK_RECORD
5
1B
100
AcDbSymbolTableRecord
100
AcDbBlockTableRecord
2
*PAPER_SPACE
0
ENDTAB
0
ENDSEC
0
SECTION
2
BLOCKS
0
BLOCK
5
20
100
AcDbEntity
100
AcDbBlockBegin
2
*MODEL_SPACE
0
ENDBLK
5
21
100
AcDbEntity
100
AcDbBlockEnd
0
BLOCK
5
1C
100
AcDbEntity
100
AcDbBlockBegin
2
*PAPER_SPACE
0
ENDBLK
5
1D
100
AcDbEntity
100
AcDbBlockEnd
0
ENDSEC
0
SECTION
2
ENTITIES
0
CIRCLE
5
100
100
AcDbEntity
8
0
100
AcDbCircle
10
-20.711307861992687
20
-29.467193385272857
30
0
40
1.03775
210
0
220
-0
230
1
0
CIRCLE
5
101
100
AcDbEntity
8
0
100
AcDbCircle
10
5.3123832167716589
20
-33.831102422912721
30
0
40
1.03775
210
0
220
-0
230
1
0
CIRCLE
5
102
100
AcDbEntity
8
0
100
AcDbCircle
10
5.5689365584066675
20
-19.77148932726481
30
0
40
1.03775
210
0
220
-0
230
1
0
CIRCLE
5
103
100
AcDbEntity
8
0
100
AcDbCircle
10
-5.4999999999980611
20
-13.805292884237963
30
0
40
1.7000000000000006
210
0
220
-0
230
1
0
CIRCLE
5
104
100
AcDbEntity
8
0
100
AcDbCircle
10
-14.499999999998055
20
-29.393750152357971
30
0
40
1.6999999999999993
210
0
220
-0
230
1
0
CIRCLE
5
105
100
AcDbEntity
8
0
100
AcDbCircle
10
-0.99999999999805156
20
-21.599521518298026
30
0
40
1.7000000000000006
210
0
220
-0
230
1
0
CIRCLE
5
106
100
AcDbEntity
8
0
100
AcDbCircle
10
-14.499999999998053
20
-13.805292884237923
30
0
40
1.7000000000000015
210
2.4651903288156619e-32
220
-9.8607613152626476e-32
230
1
0
CIRCLE
5
107
100
AcDbEntity
8
0
100
AcDbCircle
10
-18.999999999998053
20
-21.599521518298022
30
0
40
1.6999999999999993
210
0
220
-0
230
1
0
CIRCLE
5
108
100
AcDbEntity
8
0
100
AcDbCircle
10
-5.4999999999980522
20
-29.393750152357971
30
0
40
1.7000000000000006
210
0
220
-0
230
1
0
CIRCLE
5
109
100
AcDbEntity
8
0
100
AcDbCircle
10
-9.9999999999980513
20
-21.599521518298026
30
0
40
2.25
210
0
220
-0
230
1
0
LWPOLYLINE
5
110
100
AcDbEntity
8
0
100
AcDbPolyline
90
26
70
1
43
0.0
10
9.5000000000019007
20
-63.799521518297951
42
0.41421356237309892
10
10.000000000001904
20
-63.299521518297951
10
10.000000000001881
20
-19.613735080671155
42
0.19891236737965542
10
9.5606601717817181
20
-18.55307490889135
10
7.6464466094086569
20
-16.63886134651823
42
0.1989123673796569
10
6.5857864376288386
20
-16.199521518298049
10
4.871017883034833
20
-16.199521518298049
42
-0.13742855528244882
10
4.3514952548328161
20
-16.053978210463349
10
1.8726917579702498
20
-14.546828088877955
42
-0.11463788299446522
10
1.5492066056546794
20
-14.230272764982722
42
0.54815464626698118
10
-21.549206605650781
20
-14.230272764982722
42
-0.11463788299446567
10
-21.872691757966351
20
-14.546828088877955
10
-24.351495254828922
20
-16.053978210463352
42
-0.13742855528244824
10
-24.871017883030937
20
-16.199521518298049
10
-26.585786437625096
20
-16.199521518298049
42
0.1989123673796534
10
-27.646446609404897
20
-16.638861346518251
10
-29.560660171777911
20
-18.553074908891332
42
0.19891236737966239
10
-29.999999999998089
20
-19.613735080671152
10
-29.999999999998785
20
-63.299521518297944
42
0.41421356237312623
10
-29.499999999998778
20
-63.799521518297965
10
-14.551815206066877
20
-63.799521518297539
42
0.39963753414421621
10
-14.352065362512505
20
-63.609521518297576
42
-0.39963753414425224
10
-12.554316770523092
20
-61.899521518298044
10
-7.4456832294936035
20
-61.899521518298044
42
-0.39963753414429054
10
-5.6479346375041617
20
-63.609521518297797
42
0.39963753414430658
10
-5.4481847939497827
20
-63.799521518297766
0
CIRCLE
5
111
100
AcDbEntity
8
0
100
AcDbCircle
10
-26.449999999998294
20
-59.69952151829802
30
0
40
1.699999999999998
210
0
220
-0
230
1
0
CIRCLE
5
112
100
AcDbEntity
8
0
100
AcDbCircle
10
-27.499999999998089
20
-47.316889071905749
30
0
40
1.0377500000000017
210
0
220
-0
230
1
0
CIRCLE
5
113
100
AcDbEntity
8
0
100
AcDbCircle
10
6.450000000001749
20
-59.699521518298013
30
0
40
1.699999999999998
210
0
220
-0
230
1
0
CIRCLE
5
114
100
AcDbEntity
8
0
100
AcDbCircle
10
-17.999999999998085
20
-52.49952151829806
30
0
40
1.7000000000000026
210
1.6536036023925657e-65
220
9.8607613152626476e-32
230
1
0
CIRCLE
5
115
100
AcDbEntity
8
0
100
AcDbCircle
10
7.5000000000019487
20
-50.316889071905855
30
0
40
1.0377500000000006
210
-1.6536036023923498e-65
220
-9.8607613152626476e-32
230
1
0
CIRCLE
5
116
100
AcDbEntity
8
0
100
AcDbCircle
10
-27.499999999998089
20
-40.316889071905749
30
0
40
1.0377500000000017
210
0
220
-0
230
1
0
CIRCLE
5
117
100
AcDbEntity
8
0
100
AcDbCircle
10
6.4500000000017454
20
-26.099521518298005
30
0
40
1.7000000000000015
210
2.4651903288156619e-32
220
-9.8607613152626476e-32
230
1
0
CIRCLE
5
118
100
AcDbEntity
8
0
100
AcDbCircle
10
7.5000000000019584
20
-40.316889071905855
30
0
40
1.0377499999999995
210
-1.6536036023923498e-65
220
-9.8607613152626476e-32
230
1
0
CIRCLE
5
119
100
AcDbEntity
8
0
100
AcDbCircle
10
-17.999999999998089
20
-37.499521518298053
30
0
40
1.7000000000000071
210
0
220
-0
230
1
0
CIRCLE
5
120
100
AcDbEntity
8
0
100
AcDbCircle
10
-27.499999999998089
20
-53.316889071905756
30
0
40
1.0377500000000017
210
0
220
-0
230
1
0
CIRCLE
5
121
100
AcDbEntity
8
0
100
AcDbCircle
10
-1.9999999999980445
20
-37.499521518298053
30
0
40
1.7000000000000026
210
1.6536036023925657e-65
220
9.8607613152626476e-32
230
1
0
CIRCLE
5
122
100
AcDbEntity
8
0
100
AcDbCircle
10
-26.449999999998294
20
-26.099521518298005
30
0
40
1.7000000000000026
210
1.6536036023925657e-65
220
9.8607613152626476e-32
230
1
0
CIRCLE
5
123
100
AcDbEntity
8
0
100
AcDbCircle
10
-1.9999999999980489
20
-52.49952151829806
30
0
40
1.7000000000000026
210
1.6536036023925657e-65
220
9.8607613152626476e-32
230
1
0
CIRCLE
5
124
100
AcDbEntity
8
0
100
AcDbCircle
10
-19.000000000007493
20
-59.799521518298057
30
0
40
1.0377500000000017
210
0
220
-0
230
1
0
CIRCLE
5
125
100
AcDbEntity
8
0
100
AcDbCircle
10
-1.000000000007442
20
-59.799521518305056
30
0
40
1.03775
210
0
220
-0
230
1
0
ENDSEC
0
SECTION
2
OBJECTS
0
DICTIONARY
5
C
100
AcDbDictionary
3
ACAD_GROUP
350
D
3
ACAD_MLINESTYLE
350
17
0
DICTIONARY
5
D
100
AcDbDictionary
0
DICTIONARY
5
1A
330
C
100
AcDbDictionary
0
DICTIONARY
5
17
100
AcDbDictionary
0
ENDSEC
0
EOF
